<svg width="34" height="27" viewBox="0 0 34 27" fill="none" xmlns="http://www.w3.org/2000/svg">
<path d="M21.9568 5.02184C20.5845 4.77786 19.6628 3.45632 19.929 2.07379C20.1748 0.691263 21.5266 -0.203316 22.8784 0.0406602C24.2712 0.304967 25.2134 1.6265 24.9471 3.00903C24.6809 4.39156 23.3495 5.28614 21.9568 5.02184Z" fill="#A6A6A6"/>
<path d="M9.66752 9.10846C9.76993 8.55951 10.0567 8.09189 10.4663 7.80726L16.7952 3.51734C17.6145 2.88707 18.4952 3.17171 18.4952 3.17171C19.6013 3.37503 20.0109 4.45259 20.0109 4.45259L21.9567 9.27111L26.176 10.0234C27.6711 10.308 27.3025 12.2598 25.8073 11.9955L20.9326 11.0806C20.5639 11.0196 20.2157 10.7756 20.0314 10.247L18.8434 7.44129L14.8494 10.1047L17.6555 12.3208C18.8229 13.1951 18.4133 14.2726 18.4133 14.2726L18.0446 16.2651C17.9013 17.058 17.1229 17.607 16.3241 17.4646C15.5458 17.3223 14.9928 16.5294 15.1567 15.7365L15.2591 15.1469L10.4254 11.1619C9.85186 10.6536 9.52415 9.88105 9.66752 9.10846Z" fill="#A6A6A6"/>
<path d="M27.0361 15.5738C24.5578 15.5738 22.5301 17.5866 22.5301 20.0467C22.5301 22.5068 24.5578 24.5196 27.0361 24.5196C29.5145 24.5196 31.5422 22.5068 31.5422 20.0467C31.5422 17.5866 29.5145 15.5738 27.0361 15.5738ZM27.0361 13.134C30.8867 13.134 34 16.2244 34 20.0467C34 23.869 30.8867 26.9593 27.0361 26.9593C23.1855 26.9593 20.0723 23.869 20.0723 20.0467C20.0723 16.2244 23.1855 13.134 27.0361 13.134Z" fill="#A6A6A6"/>
<path d="M6.96388 16.387C4.93617 16.387 3.27714 18.0339 3.27714 20.0467C3.27714 22.0595 4.93617 23.7063 6.96388 23.7063C8.99159 23.7063 10.6506 22.0595 10.6506 20.0467C10.6506 18.0339 8.99159 16.387 6.96388 16.387ZM6.96388 13.134C10.8145 13.134 13.9277 16.2244 13.9277 20.0467C13.9277 23.869 10.8145 26.9593 6.96388 26.9593C3.11328 26.9593 3.24249e-05 23.869 3.24249e-05 20.0467C3.24249e-05 16.2244 3.11328 13.134 6.96388 13.134Z" fill="#A6A6A6"/>
</svg>
