<svg width="34" height="36" viewBox="0 0 34 36" fill="none" xmlns="http://www.w3.org/2000/svg">
<g clip-path="url(#clip0_134_195)">
<path fill-rule="evenodd" clip-rule="evenodd" d="M22.9676 7.97938C20.7398 7.97938 18.9364 6.17673 18.9364 3.97644C18.9364 1.80265 20.7133 0 22.9676 0C25.1688 0 26.9723 1.80265 26.9723 4.00295C26.9458 6.20324 25.1688 7.97938 22.9676 7.97938ZM30.1548 8.53608C31.64 6.44183 35.1408 8.45655 33.6291 10.6038C30.6852 14.7128 26.601 16.2504 22.2515 14.9249C20.899 17.2577 19.5729 19.6171 18.3529 22.0295C20.2094 22.9573 22.3311 24.6009 23.4715 25.5022C24.8771 26.5891 26.6275 30.9632 27.6883 33.1635C28.8288 35.4963 25.1688 37.1929 24.0284 34.8601C23.1002 32.9514 21.5355 29.1075 20.6072 28.3387C19.679 27.5965 16.6821 25.4757 14.3748 24.6804C14.2687 24.6539 14.1626 24.6009 14.083 24.5214C11.2718 28.1001 5.75542 29.7703 1.06119 27.0398C-1.40527 25.5817 0.849022 22.0295 3.342 23.4875C6.76322 25.4757 10.3436 22.9043 11.9613 19.7231C13.5791 16.489 14.7195 14.2356 16.0191 11.9558C13.4465 11.1605 11.1127 11.8763 9.28272 14.4742C7.77102 16.5685 4.29676 14.5538 5.80846 12.433C9.36228 7.44919 14.6665 6.20324 19.9972 9.35788C20.2094 9.51694 21.2437 10.0471 21.4559 10.2062C24.7445 12.1414 27.8475 11.7703 30.1548 8.53608Z" fill="#A6A6A6"/>
</g>
<defs>
<clipPath id="clip0_134_195">
<rect width="34" height="36" fill="white" transform="matrix(-1 0 0 1 34 0)"/>
</clipPath>
</defs>
</svg>
