<svg width="34" height="23" viewBox="0 0 34 23" fill="none" xmlns="http://www.w3.org/2000/svg">
<g clip-path="url(#clip0_134_187)">
<path fill-rule="evenodd" clip-rule="evenodd" d="M7.19284 4.16667C6.05858 4.05556 5.22864 2.97222 5.39463 1.83333C5.56061 0.694444 6.58421 -0.138889 7.71847 0.0277778L16.0179 1.08333C16.7372 1.16667 17.2905 1.5 17.7054 2.38889C18.5077 4.33333 20.9976 11.6944 22.5744 14.8889C22.3808 14.8611 23.9024 16.0833 23.7087 16C22.4085 15.6667 20.6379 15.8889 18.4801 16.6111C15.9902 17.4444 15.1603 18.2778 11.2872 18.5556C7.41415 18.8333 6.03092 18.2778 5.20097 18C4.50935 17.7778 12.5321 11.0556 12.8088 11C14.8836 9.97222 13.9154 10.3889 15.9349 9.36111C15.9626 9.36111 15.9626 9.36111 15.9626 9.36111C15.6859 8.83333 14.4687 5.72222 14.2474 5.11111L7.19284 4.16667ZM24.6216 17.3056C31.0122 17.3056 34 23 34 23C34 23 32.0081 20.1667 26.3369 20.1667C21.6615 20.1667 17.5395 23 10.7339 23C3.07079 23 -0.027668 17.3056 -0.027668 17.3056C-0.027668 17.3056 2.65582 20.1389 9.738 20.1389C16.7095 20.1389 20.3889 17.3056 24.6216 17.3056ZM31.8975 8.5C31.8975 11.0278 29.8226 13.0833 27.3051 13.0833C24.7876 13.0833 22.7404 11.0556 22.7404 8.5C22.7404 5.97222 24.76 3.88889 27.3051 3.88889C29.8226 3.88889 31.8975 5.97222 31.8975 8.5Z" fill="#A6A6A6"/>
</g>
<defs>
<clipPath id="clip0_134_187">
<rect width="34" height="23" fill="white" transform="matrix(-1 0 0 1 34 0)"/>
</clipPath>
</defs>
</svg>
