<svg width="24" height="24" viewBox="0 0 24 24" fill="none" xmlns="http://www.w3.org/2000/svg">
<path d="M22.0829 11.3954C19.861 6.71497 16.5024 4.3595 12.0001 4.3595C7.49539 4.3595 4.13914 6.71497 1.91726 11.3978C1.82814 11.5865 1.78192 11.7926 1.78192 12.0013C1.78192 12.21 1.82814 12.4161 1.91726 12.6048C4.13914 17.2853 7.49773 19.6407 12.0001 19.6407C16.5048 19.6407 19.861 17.2853 22.0829 12.6025C22.2634 12.2228 22.2634 11.7822 22.0829 11.3954ZM12.0001 17.9532C8.21961 17.9532 5.45164 16.0361 3.49929 12.0001C5.45164 7.96418 8.21961 6.047 12.0001 6.047C15.7805 6.047 18.5485 7.96418 20.5009 12.0001C18.5509 16.0361 15.7829 17.9532 12.0001 17.9532ZM11.9063 7.87512C9.6282 7.87512 7.78132 9.722 7.78132 12.0001C7.78132 14.2782 9.6282 16.1251 11.9063 16.1251C14.1844 16.1251 16.0313 14.2782 16.0313 12.0001C16.0313 9.722 14.1844 7.87512 11.9063 7.87512ZM11.9063 14.6251C10.4555 14.6251 9.28132 13.4509 9.28132 12.0001C9.28132 10.5493 10.4555 9.37512 11.9063 9.37512C13.3571 9.37512 14.5313 10.5493 14.5313 12.0001C14.5313 13.4509 13.3571 14.6251 11.9063 14.6251Z" fill="#262626"/>
</svg>
