<svg width="50" height="50" viewBox="0 0 50 50" fill="none" xmlns="http://www.w3.org/2000/svg">
<path d="M24.9999 0.000201086C30.5032 0.000200846 35.8528 1.81613 40.2189 5.16635C44.585 8.51656 47.7236 13.2138 49.1479 18.5296C50.5723 23.8455 50.2028 29.4827 48.0968 34.5671C45.9908 39.6516 42.2659 43.899 37.4999 46.6506C32.7338 49.4023 27.193 50.5045 21.7368 49.7861C16.2805 49.0678 11.2137 46.5691 7.3223 42.6777C3.43086 38.7863 0.932207 33.7195 0.213877 28.2632C-0.504453 22.807 0.597683 17.2662 3.34935 12.5002L14.1746 18.7501C12.7988 21.1331 12.2477 23.9035 12.6069 26.6317C12.9661 29.3598 14.2154 31.8932 16.1611 33.8389C18.1068 35.7846 20.6402 37.0339 23.3683 37.3931C26.0965 37.7523 28.8669 37.2012 31.2499 35.8254C33.6329 34.4495 35.4953 32.3258 36.5483 29.7836C37.6014 27.2414 37.7861 24.4228 37.0739 21.7649C36.3617 19.107 34.7924 16.7583 32.6094 15.0832C30.4263 13.4081 27.7516 12.5002 24.9999 12.5002L24.9999 0.000201086Z" fill="url(#paint0_angular_8_484)"/>
<path d="M20.4385 0H25.41L29.2767 1.10478V28.7243H20.4385L20.4385 0Z" fill="#0FD7CB"/>
<defs>
<radialGradient id="paint0_angular_8_484" cx="0" cy="0" r="1" gradientUnits="userSpaceOnUse" gradientTransform="translate(24.9999 25.0001) rotate(-148.134) scale(25.329)">
<stop stop-color="#0FD7CB"/>
<stop offset="0.740445" stop-color="white" stop-opacity="0.654476"/>
<stop offset="1" stop-color="#0FD7CB"/>
</radialGradient>
</defs>
</svg>
