<svg width="61" height="40" viewBox="0 0 61 40" fill="none" xmlns="http://www.w3.org/2000/svg">
<path d="M0 5C0 2.23858 2.27589 0 5.08333 0H55.9167C58.7241 0 61 2.23858 61 5V35C61 37.7614 58.7241 40 55.9167 40H5.08333C2.27588 40 0 37.7614 0 35V5Z" fill="#FDEACE"/>
<path d="M36.8535 8.15926L23.7379 8.2019L24.1466 31.8409L37.2621 31.7983L36.8535 8.15926Z" fill="#FF5F00"/>
<path d="M24.5981 20.0708C24.5147 15.2627 26.7009 10.9907 30.1272 8.22003C27.539 6.22142 24.295 5.01936 20.779 5.03074C12.4494 5.05771 5.82718 11.8109 5.97161 20.1311C6.11605 28.4513 12.9719 35.1609 21.3015 35.134C24.8176 35.1226 28.0195 33.8997 30.538 31.8845C27.0166 29.1781 24.6816 24.879 24.5981 20.0708Z" fill="#EB001B"/>
<path d="M55.0284 19.869C55.1729 28.1892 48.5507 34.9424 40.2211 34.9694C36.7051 34.9808 33.461 33.7787 30.8728 31.7801C34.341 29.0092 36.4854 24.7374 36.4019 19.9293C36.3184 15.1211 33.9841 10.8638 30.462 8.11562C32.9805 6.10047 36.1825 4.87754 39.6985 4.86616C48.0281 4.83919 54.8847 11.5906 55.0284 19.869Z" fill="#F79E1B"/>
</svg>
