<svg width="61" height="40" viewBox="0 0 61 40" fill="none" xmlns="http://www.w3.org/2000/svg">
<path d="M0 5C0 2.23858 2.27589 0 5.08333 0H55.9167C58.7241 0 61 2.23858 61 5V35C61 37.7614 58.7241 40 55.9167 40H5.08333C2.27588 40 0 37.7614 0 35V5Z" fill="#D8E3F3"/>
<path d="M52.498 12.5438H49.3024C48.3363 12.5438 47.5931 12.8362 47.1472 13.7865L41.0531 27.456H45.3635C45.3635 27.456 46.1067 25.6286 46.2554 25.19C46.7013 25.19 50.9374 25.19 51.5319 25.19C51.6805 25.7017 52.0521 27.3829 52.0521 27.3829H55.9167L52.498 12.5438ZM47.4444 22.1198C47.816 21.2426 49.0794 17.9531 49.0794 17.9531C49.0794 18.0262 49.451 17.0759 49.5997 16.5642L49.8969 17.88C49.8969 17.88 50.7144 21.4619 50.8631 22.1929H47.4444V22.1198Z" fill="#3362AB"/>
<path d="M41.3504 22.5584C41.3504 25.6286 38.5263 27.6754 34.1416 27.6754C32.2836 27.6754 30.5 27.3099 29.5339 26.8713L30.1284 23.5087L30.6486 23.728C31.9864 24.3128 32.8782 24.5321 34.5132 24.5321C35.7022 24.5321 36.9656 24.0935 36.9656 23.0701C36.9656 22.4122 36.4454 21.9736 34.8104 21.2427C33.2498 20.5117 31.1689 19.3421 31.1689 17.2222C31.1689 14.2982 34.0673 12.3245 38.1547 12.3245C39.7154 12.3245 41.0531 12.6169 41.8706 12.9824L41.2761 16.1988L40.9788 15.9064C40.2356 15.614 39.2695 15.3216 37.8575 15.3216C36.2968 15.3947 35.5536 16.0526 35.5536 16.6374C35.5536 17.2953 36.4454 17.807 37.8575 18.4649C40.2356 19.5614 41.3504 20.8041 41.3504 22.5584Z" fill="#3362AB"/>
<path d="M5.08333 12.69L5.15765 12.3976H11.549C12.4408 12.3976 13.1096 12.69 13.3326 13.6403L14.7446 20.2193C13.3326 16.7105 10.0626 13.8596 5.08333 12.69Z" fill="#F9B50B"/>
<path d="M23.7371 12.5438L17.2714 27.383H12.8867L9.17081 14.9561C11.8462 16.6374 14.0758 19.2689 14.8933 21.0964L15.3392 22.6315L19.3523 12.4707H23.7371V12.5438Z" fill="#3362AB"/>
<path d="M25.4464 12.4707H29.5339L26.9328 27.383H22.8453L25.4464 12.4707Z" fill="#3362AB"/>
</svg>
