<svg width="57" height="57" viewBox="0 0 57 57" fill="none" xmlns="http://www.w3.org/2000/svg">
<path d="M26.7188 32.2852H20.707C20.5889 32.2852 20.4757 32.3321 20.3921 32.4156C20.3086 32.4991 20.2617 32.6124 20.2617 32.7305V35.4023C20.2617 35.5204 20.3086 35.6337 20.3921 35.7172C20.4757 35.8007 20.5889 35.8477 20.707 35.8477H26.7188V41.8594C26.7188 41.9775 26.7657 42.0907 26.8492 42.1743C26.9327 42.2578 27.046 42.3047 27.1641 42.3047H29.8359C29.954 42.3047 30.0673 42.2578 30.1508 42.1743C30.2343 42.0907 30.2812 41.9775 30.2812 41.8594V35.8477H36.293C36.4111 35.8477 36.6079 35.7172 36.6079 35.7172C36.6079 35.7172 36.7383 35.5204 36.7383 35.4023V32.7305C36.7383 32.6124 36.6914 32.4991 36.6079 32.4156C36.5243 32.3321 36.4111 32.2852 36.293 32.2852H30.2812V26.2734C30.2812 26.1553 30.2343 26.0421 30.1508 25.9586C30.0673 25.875 29.954 25.8281 29.8359 25.8281H27.1641C27.046 25.8281 26.9327 25.875 26.8492 25.9586C26.7657 26.0421 26.7188 26.1553 26.7188 26.2734V32.2852ZM47.5705 16.0702C47.9045 16.4042 48.0938 16.8551 48.0938 17.3282V51.6562C48.0938 52.6415 47.2978 53.4375 46.3125 53.4375H10.6875C9.70225 53.4375 8.90625 52.6415 8.90625 51.6562V5.34375C8.90625 4.3585 9.70225 3.5625 10.6875 3.5625H34.328C34.8012 3.5625 35.2576 3.75176 35.5916 4.08574L47.5705 16.0702ZM43.9857 18.1465L33.5098 7.67051V18.1465H43.9857Z" fill="#C7C7C7"/>
</svg>
