<svg width="52" height="52" viewBox="0 0 52 52" fill="none" xmlns="http://www.w3.org/2000/svg">
<path d="M25.9997 32.9333C29.8289 32.9333 32.9331 29.8292 32.9331 26C32.9331 22.1708 29.8289 19.0667 25.9997 19.0667C22.1706 19.0667 19.0664 22.1708 19.0664 26C19.0664 29.8292 22.1706 32.9333 25.9997 32.9333Z" fill="#C7C7C7"/>
<path d="M19.4997 4.33331L15.5347 8.66665H8.66634C6.28301 8.66665 4.33301 10.6166 4.33301 13V39C4.33301 41.3833 6.28301 43.3333 8.66634 43.3333H43.333C45.7163 43.3333 47.6663 41.3833 47.6663 39V13C47.6663 10.6166 45.7163 8.66665 43.333 8.66665H36.4647L32.4997 4.33331H19.4997ZM25.9997 36.8333C20.0197 36.8333 15.1663 31.98 15.1663 26C15.1663 20.02 20.0197 15.1666 25.9997 15.1666C31.9797 15.1666 36.833 20.02 36.833 26C36.833 31.98 31.9797 36.8333 25.9997 36.8333Z" fill="#C7C7C7"/>
</svg>
