<svg width="32" height="32" viewBox="0 0 32 32" fill="none" xmlns="http://www.w3.org/2000/svg">
<g opacity="0.5">
<path d="M9.93562 19.1961L10.4255 19.0958C10.4038 18.9898 10.3483 18.8937 10.2674 18.822L9.93562 19.1961ZM7.39007 16.9388L7.14007 16.5058C7.00088 16.5861 6.90881 16.7285 6.89262 16.8884C6.87642 17.0483 6.93809 17.2063 7.05834 17.3129L7.39007 16.9388ZM10.6177 22.5292L10.1279 22.6295C10.1601 22.7869 10.266 22.9193 10.4126 22.9852C10.5592 23.0511 10.7285 23.0426 10.8677 22.9622L10.6177 22.5292ZM12.4812 21.4533L12.7312 21.8863C12.8759 21.8028 12.9694 21.6523 12.9801 21.4855L12.4812 21.4533ZM12.606 19.5178L12.356 19.0848C12.2112 19.1684 12.1178 19.3188 12.107 19.4856L12.606 19.5178ZM14.9353 18.173L15.3892 17.9632C15.3303 17.8357 15.2204 17.7388 15.0865 17.6963C14.9526 17.6539 14.807 17.6697 14.6853 17.7399L14.9353 18.173ZM17.4281 23.5665L16.9743 23.7762C17.0332 23.9038 17.1431 24.0006 17.277 24.0431C17.4109 24.0855 17.5565 24.0697 17.6781 23.9995L17.4281 23.5665ZM19.2916 22.4906L19.5416 22.9236C19.7001 22.8321 19.7959 22.6614 19.7915 22.4785L19.2916 22.4906ZM19.1281 15.7522L18.8781 15.3192C18.7197 15.4107 18.6239 15.5814 18.6283 15.7644L19.1281 15.7522ZM17.5143 12.957L17.2539 13.3838C17.4101 13.4791 17.6059 13.4815 17.7643 13.39L17.5143 12.957ZM11.7605 9.44629L12.0209 9.01947C11.8647 8.92417 11.6689 8.92179 11.5105 9.01328L11.7605 9.44629ZM9.897 10.5222L9.647 10.0892C9.52534 10.1594 9.43884 10.2776 9.40867 10.4148C9.3785 10.552 9.40743 10.6955 9.4884 10.8103L9.897 10.5222ZM13.3215 15.3777L13.5715 15.8108C13.6932 15.7405 13.7797 15.6223 13.8099 15.4851C13.84 15.3479 13.8111 15.2044 13.7301 15.0896L13.3215 15.3777ZM10.9922 16.7226L10.7706 17.1708C10.9204 17.2449 11.0974 17.2392 11.2422 17.1556L10.9922 16.7226ZM9.25354 15.8629L9.47516 15.4147C9.3253 15.3406 9.14832 15.3463 9.00354 15.4299L9.25354 15.8629ZM10.2674 18.822L7.72181 16.5647L7.05834 17.3129L9.60389 19.5702L10.2674 18.822ZM9.44577 19.2963L10.1279 22.6295L11.1075 22.429L10.4255 19.0958L9.44577 19.2963ZM10.8677 22.9622L12.7312 21.8863L12.2312 21.0203L10.3677 22.0962L10.8677 22.9622ZM12.9801 21.4855L13.105 19.55L12.107 19.4856L11.9822 21.4212L12.9801 21.4855ZM12.856 19.9508L15.1853 18.606L14.6853 17.7399L12.356 19.0848L12.856 19.9508ZM14.4815 18.3827L16.9743 23.7762L17.882 23.3567L15.3892 17.9632L14.4815 18.3827ZM17.6781 23.9995L19.5416 22.9236L19.0416 22.0576L17.1781 23.1335L17.6781 23.9995ZM19.7915 22.4785L19.628 15.7401L18.6283 15.7644L18.7917 22.5027L19.7915 22.4785ZM19.3781 16.1852L20.6296 15.4627L20.1296 14.5967L18.8781 15.3192L19.3781 16.1852ZM20.6296 15.4627C21.407 15.0139 22.2391 14.372 22.8159 13.7023C23.1032 13.3687 23.3491 13.0032 23.4806 12.6294C23.614 12.2501 23.6435 11.8143 23.4129 11.4149L22.5469 11.9149C22.5853 11.9815 22.6094 12.0923 22.5372 12.2976C22.4631 12.5083 22.3031 12.7654 22.0582 13.0496C21.5709 13.6155 20.8338 14.1901 20.1296 14.5967L20.6296 15.4627ZM19.0158 12.6675C19.72 12.2609 20.5862 11.9099 21.3199 11.7708C21.6885 11.7009 21.9911 11.6908 22.2107 11.732C22.4246 11.7721 22.5085 11.8484 22.5469 11.9149L23.4129 11.4149C23.1824 11.0156 22.7902 10.8232 22.395 10.7491C22.0055 10.6761 21.566 10.7063 21.1336 10.7883C20.2651 10.953 19.2932 11.3527 18.5158 11.8015L19.0158 12.6675ZM17.7643 13.39L19.0158 12.6675L18.5158 11.8015L17.2643 12.524L17.7643 13.39ZM11.5 9.87312L17.2539 13.3838L17.7748 12.5302L12.0209 9.01947L11.5 9.87312ZM10.147 10.9552L12.0105 9.87931L11.5105 9.01328L9.647 10.0892L10.147 10.9552ZM13.7301 15.0896L10.3056 10.234L9.4884 10.8103L12.9129 15.6659L13.7301 15.0896ZM11.2422 17.1556L13.5715 15.8108L13.0715 14.9447L10.7422 16.2896L11.2422 17.1556ZM9.03193 16.3111L10.7706 17.1708L11.2138 16.2744L9.47516 15.4147L9.03193 16.3111ZM7.64007 17.3718L9.50354 16.2959L9.00354 15.4299L7.14007 16.5058L7.64007 17.3718Z" fill="black"/>
<rect x="0.5" y="0.5" width="31" height="31" rx="15.5" stroke="black"/>
</g>
</svg>
