<svg width="28" height="28" viewBox="0 0 28 28" fill="none" xmlns="http://www.w3.org/2000/svg">
<circle cx="14" cy="14" r="13.5" fill="#F6F7F9" stroke="#DCDCDC"/>
<path d="M9.88867 11.8414H11.3854C11.4745 10.2734 12.0625 8.99053 13.8799 8.99053C15.2163 8.99053 16.0538 9.84581 16.0538 11.2356C16.0538 11.984 15.8043 12.5185 15.0381 13.2847C13.577 14.7458 13.0781 15.2091 13.0781 17.3651V17.472H14.5392C14.5392 15.3873 15.0738 15.1556 16.2676 14.0331C17.1407 13.2134 17.6574 12.3938 17.6574 11.0574C17.6574 8.97272 16.1785 7.63635 13.8978 7.63635C11.1716 7.63635 9.88867 9.50726 9.88867 11.8414ZM14.7174 18.7549H12.8465V20.5545H14.7174V18.7549Z" fill="#7A7A7A"/>
</svg>
