<svg width="24" height="16" viewBox="0 0 24 16" fill="none" xmlns="http://www.w3.org/2000/svg">
<path d="M18.6777 9.72832C20.1776 9.72832 21.3935 8.51241 21.3935 7.01251C21.3935 5.5126 20.1776 4.29669 18.6777 4.29669C17.1778 4.29669 15.9619 5.5126 15.9619 7.01251C15.9619 8.51241 17.1778 9.72832 18.6777 9.72832Z" fill="black"/>
<path d="M0 13.4123C0.475786 13.7137 0.994372 13.9534 1.48434 13.9348C1.97089 13.9216 2.38182 13.6811 2.73288 13.3458C2.82058 13.2621 2.90618 13.1733 2.98758 13.079L3.1383 12.9176C3.19239 12.8603 3.24543 12.8023 3.30661 12.7487C3.53689 12.5263 3.8139 12.3273 4.13766 12.1734C4.45984 12.0188 4.84215 11.9269 5.22892 11.9342C5.61595 11.9395 5.99406 12.0371 6.32071 12.1889C6.65076 12.3386 6.93828 12.5321 7.19246 12.7409L7.49363 12.9795C7.58343 13.0404 7.67192 13.1024 7.76041 13.1476C8.1246 13.3382 8.40083 13.3716 8.68178 13.2778C8.82488 13.2279 8.98243 13.152 9.14286 13.0307C9.22242 12.969 9.30408 12.9094 9.38312 12.8314L9.70057 12.5387C9.96236 12.3136 10.2612 12.1044 10.6149 11.9389C10.9664 11.7743 11.385 11.6635 11.8151 11.6632C12.2454 11.6625 12.664 11.774 13.0156 11.9387C13.3698 12.1038 13.6678 12.3142 13.9307 12.5376L14.2481 12.8307C14.3269 12.9086 14.4088 12.9682 14.4881 13.0299C14.6483 13.152 14.8063 13.2264 14.9489 13.2762C15.2296 13.3705 15.5045 13.3361 15.8685 13.146C15.9567 13.1008 16.0452 13.0391 16.135 12.9782L16.4359 12.7393C16.6903 12.5305 16.9781 12.337 17.3084 12.1873C17.6353 12.0358 18.0137 11.9371 18.4013 11.9324C18.7886 11.9256 19.1714 12.0167 19.4938 12.1719C19.8178 12.326 20.0949 12.5253 20.3254 12.7477C20.3866 12.8012 20.4396 12.8595 20.4937 12.9165L20.6444 13.0783C20.7258 13.1725 20.8109 13.2615 20.8989 13.345C21.2494 13.6803 21.6598 13.9211 22.1458 13.9345C22.6353 13.9539 23.1541 13.7145 23.6304 13.4136C23.2964 13.8631 22.8488 14.2935 22.2157 14.457C21.9045 14.5424 21.5611 14.539 21.2389 14.4678C20.9152 14.3964 20.6166 14.258 20.3427 14.096C20.2051 14.0146 20.0778 13.9227 19.9539 13.8279C19.8851 13.7754 19.8446 13.7497 19.7916 13.7116C19.7414 13.6764 19.6921 13.6394 19.6401 13.6108C19.4384 13.4808 19.2331 13.3852 19.0377 13.3356C18.6436 13.234 18.3277 13.3075 17.9906 13.5175C17.8233 13.6207 17.6571 13.7612 17.4998 13.9285L17.3546 14.0716L17.1732 14.2436C17.043 14.3544 16.9117 14.4647 16.761 14.5647C16.4656 14.7658 16.1169 14.9431 15.717 15.0313C15.3197 15.1229 14.8812 15.1166 14.4868 15.0197C14.0903 14.9257 13.7392 14.7498 13.4438 14.5503C13.2973 14.4497 13.1511 14.3457 13.0253 14.2341L12.7168 13.9713C12.3833 13.6969 12.0637 13.5546 11.814 13.564C11.5641 13.553 11.2453 13.6974 10.9105 13.97L10.602 14.2331C10.4762 14.3447 10.33 14.4484 10.1834 14.5492C9.88831 14.7493 9.53646 14.9236 9.14076 15.0176C8.74664 15.1145 8.30866 15.1208 7.91165 15.0292C7.51201 14.9415 7.1641 14.7627 6.8687 14.5626C6.71824 14.4626 6.58696 14.3523 6.45672 14.2417L6.27528 14.0697L6.19021 13.987L6.1306 13.9261C5.97332 13.7589 5.80685 13.6184 5.63906 13.5152C5.30165 13.3038 4.98446 13.2319 4.58981 13.333C4.39419 13.3828 4.18912 13.4792 3.98694 13.6087C3.93495 13.637 3.88585 13.6743 3.83543 13.7095C3.78239 13.7476 3.74196 13.7736 3.67316 13.8258C3.54923 13.9206 3.42214 14.0128 3.28429 14.0936C3.01069 14.2554 2.7124 14.3943 2.38917 14.4654C2.06725 14.5369 1.72407 14.54 1.41318 14.4549C0.782211 14.2914 0.334521 13.8615 0 13.4123Z" fill="black"/>
<path d="M6.32093 10.8306C6.65099 10.9803 6.93851 11.1738 7.19268 11.3825L7.49385 11.6212C7.58365 11.6821 7.67214 11.7441 7.76063 11.7893C8.12482 11.9799 8.40105 12.0133 8.682 11.9195C8.82511 11.8696 8.98265 11.7937 9.14309 11.6724C9.22265 11.6107 9.30431 11.5511 9.38334 11.4731L9.7008 11.1804C9.96232 10.9553 10.2614 10.7461 10.6151 10.5806C10.9667 10.416 11.3852 10.3052 11.8153 10.3049C12.2457 10.3041 12.6642 10.4157 13.0158 10.5804C13.37 10.7455 13.668 10.9559 13.9309 11.1793L14.2483 11.4723C14.3271 11.5503 14.409 11.6099 14.4883 11.6716C14.6485 11.7937 14.8066 11.868 14.9491 11.9179C15.2298 12.0122 15.5048 11.9778 15.8687 11.7877C15.9569 11.7425 16.0454 11.6808 16.1352 11.6199L16.3116 11.48L14.3731 8.43882C14.1281 8.03366 14.0858 7.53713 14.2591 7.09627L15.3727 4.26256C15.5331 3.85452 15.8773 3.54678 16.3006 3.43309L19.7805 2.49884C20.4585 2.31688 20.8605 1.61974 20.6785 0.941775C20.4966 0.263806 19.7994 -0.138196 19.1215 0.0437683L14.4038 1.31043C13.9805 1.42413 13.636 1.73186 13.4758 2.1399L11.8177 6.35922C11.6475 6.79195 11.3401 7.15666 10.942 7.39718L5.47754 10.5938C5.77661 10.6279 6.06492 10.7117 6.32093 10.8306Z" fill="black"/>
</svg>
