<svg width="78" height="78" viewBox="0 0 78 78" fill="none" xmlns="http://www.w3.org/2000/svg">
<path d="M38.9998 48.8183C44.4223 48.8183 48.818 44.4225 48.818 39.0001C48.818 33.5776 44.4223 29.1819 38.9998 29.1819C33.5774 29.1819 29.1816 33.5776 29.1816 39.0001C29.1816 44.4225 33.5774 48.8183 38.9998 48.8183Z" stroke="#8E8E8E" stroke-width="6" stroke-linecap="round" stroke-linejoin="round"/>
<path d="M63.2182 48.8182C62.7825 49.8053 62.6526 50.9003 62.8451 51.9619C63.0376 53.0236 63.5437 54.0032 64.2982 54.7745L64.4945 54.9709C65.1031 55.5788 65.5859 56.3007 65.9153 57.0953C66.2447 57.8899 66.4142 58.7416 66.4142 59.6018C66.4142 60.462 66.2447 61.3137 65.9153 62.1083C65.5859 62.9029 65.1031 63.6248 64.4945 64.2327C63.8867 64.8413 63.1648 65.3241 62.3702 65.6535C61.5755 65.9829 60.7238 66.1524 59.8636 66.1524C59.0035 66.1524 58.1517 65.9829 57.3571 65.6535C56.5625 65.3241 55.8406 64.8413 55.2327 64.2327L55.0364 64.0364C54.265 63.2819 53.2854 62.7758 52.2237 62.5833C51.1621 62.3908 50.0671 62.5207 49.08 62.9564C48.112 63.3712 47.2865 64.0601 46.705 64.9381C46.1235 65.8162 45.8115 66.8451 45.8073 67.8982V68.4545C45.8073 70.1905 45.1177 71.8554 43.8902 73.0829C42.6626 74.3104 40.9978 75 39.2618 75C37.5259 75 35.861 74.3104 34.6335 73.0829C33.406 71.8554 32.7164 70.1905 32.7164 68.4545V68.16C32.691 67.0767 32.3404 66.0262 31.71 65.1448C31.0797 64.2635 30.1988 63.5922 29.1818 63.2182C28.1947 62.7825 27.0997 62.6526 26.0381 62.8451C24.9764 63.0376 23.9968 63.5437 23.2255 64.2982L23.0291 64.4945C22.4212 65.1031 21.6993 65.5859 20.9047 65.9153C20.1101 66.2447 19.2584 66.4142 18.3982 66.4142C17.538 66.4142 16.6863 66.2447 15.8917 65.9153C15.0971 65.5859 14.3752 65.1031 13.7673 64.4945C13.1587 63.8867 12.6759 63.1648 12.3465 62.3702C12.0171 61.5755 11.8476 60.7238 11.8476 59.8636C11.8476 59.0035 12.0171 58.1517 12.3465 57.3571C12.6759 56.5625 13.1587 55.8406 13.7673 55.2327L13.9636 55.0364C14.7181 54.265 15.2242 53.2854 15.4167 52.2237C15.6092 51.1621 15.4793 50.0671 15.0436 49.08C14.6288 48.112 13.9399 47.2865 13.0619 46.705C12.1838 46.1235 11.1549 45.8115 10.1018 45.8073H9.54545C7.80949 45.8073 6.14463 45.1177 4.91712 43.8902C3.68961 42.6626 3 40.9978 3 39.2618C3 37.5259 3.68961 35.861 4.91712 34.6335C6.14463 33.406 7.80949 32.7164 9.54545 32.7164H9.84C10.9233 32.691 11.9738 32.3404 12.8552 31.71C13.7365 31.0797 14.4078 30.1988 14.7818 29.1818C15.2175 28.1947 15.3474 27.0997 15.1549 26.0381C14.9624 24.9764 14.4563 23.9968 13.7018 23.2255L13.5055 23.0291C12.8969 22.4212 12.4141 21.6993 12.0847 20.9047C11.7553 20.1101 11.5858 19.2584 11.5858 18.3982C11.5858 17.538 11.7553 16.6863 12.0847 15.8917C12.4141 15.0971 12.8969 14.3752 13.5055 13.7673C14.1134 13.1587 14.8352 12.6759 15.6298 12.3465C16.4245 12.0171 17.2762 11.8476 18.1364 11.8476C18.9965 11.8476 19.8483 12.0171 20.6429 12.3465C21.4375 12.6759 22.1594 13.1587 22.7673 13.7673L22.9636 13.9636C23.7349 14.7181 24.7146 15.2242 25.7763 15.4167C26.8379 15.6092 27.9329 15.4793 28.92 15.0436H29.1818C30.1498 14.6288 30.9753 13.9399 31.5568 13.0619C32.1383 12.1838 32.4503 11.1549 32.4545 10.1018V9.54545C32.4545 7.80949 33.1442 6.14463 34.3717 4.91712C35.5992 3.68961 37.264 3 39 3C40.736 3 42.4008 3.68961 43.6283 4.91712C44.8558 6.14463 45.5455 7.80949 45.5455 9.54545V9.84C45.5497 10.8931 45.8617 11.922 46.4432 12.8001C47.0247 13.6781 47.8502 14.367 48.8182 14.7818C49.8053 15.2175 50.9003 15.3474 51.9619 15.1549C53.0236 14.9624 54.0032 14.4563 54.7745 13.7018L54.9709 13.5055C55.5788 12.8969 56.3007 12.4141 57.0953 12.0847C57.8899 11.7553 58.7416 11.5858 59.6018 11.5858C60.462 11.5858 61.3137 11.7553 62.1083 12.0847C62.9029 12.4141 63.6248 12.8969 64.2327 13.5055C64.8413 14.1134 65.3241 14.8352 65.6535 15.6298C65.9829 16.4245 66.1524 17.2762 66.1524 18.1364C66.1524 18.9965 65.9829 19.8483 65.6535 20.6429C65.3241 21.4375 64.8413 22.1594 64.2327 22.7673L64.0364 22.9636C63.2819 23.7349 62.7758 24.7146 62.5833 25.7763C62.3908 26.8379 62.5207 27.9329 62.9564 28.92V29.1818C63.3712 30.1498 64.0601 30.9753 64.9381 31.5568C65.8162 32.1383 66.8451 32.4503 67.8982 32.4545H68.4545C70.1905 32.4545 71.8554 33.1442 73.0829 34.3717C74.3104 35.5992 75 37.264 75 39C75 40.736 74.3104 42.4008 73.0829 43.6283C71.8554 44.8558 70.1905 45.5455 68.4545 45.5455H68.16C67.1069 45.5497 66.078 45.8617 65.1999 46.4432C64.3219 47.0247 63.633 47.8502 63.2182 48.8182V48.8182Z" stroke="#8E8E8E" stroke-width="6" stroke-linecap="round" stroke-linejoin="round"/>
</svg>
