<svg width="70" height="67" viewBox="0 0 70 67" fill="none" xmlns="http://www.w3.org/2000/svg">
<g clip-path="url(#clip0_164_76)">
<path d="M4.2041 48.52V54.8858H12.299V48.52H4.2041ZM47.6009 30.187V54.8858H55.6958V30.187H47.6009ZM33.1372 37.2098V54.8858H41.2264V37.2098H33.1372ZM18.6735 41.82V54.8858H26.7627V41.82H18.6735Z" fill="#8E8E8E"/>
<path d="M66.4311 10.976C64.46 10.976 62.8621 12.5739 62.8621 14.5449V59.9036H4.62488C2.66525 59.9036 1.07665 61.4922 1.07665 63.4518V63.4518C1.07665 65.4114 2.66525 67 4.62488 67H66.4282C68.3993 67 70 65.4086 70 63.449V14.545C70 12.5739 68.4021 10.976 66.4311 10.976V10.976ZM46.8376 10.0698L47.43 14.68C47.6123 16.1015 48.9168 17.104 50.3467 16.9284C51.7765 16.7472 52.7848 15.4502 52.6082 14.0287L51.0986 2.3504C51.0189 1.52919 50.5461 0.758941 49.7713 0.32851C49.0649 -0.0622766 48.2617 -0.0905945 47.561 0.175593L36.2476 4.50822C34.9031 5.02361 34.2366 6.52445 34.755 7.86105C35.2734 9.19766 36.783 9.86029 38.1274 9.34491L41.9897 7.86672C37.7572 13.5756 32.6872 18.3443 27.2127 22.0596C19.3286 27.4117 10.6356 30.555 2.42674 31.144C0.985499 31.2459 -0.0968552 32.4862 0.0056839 33.9191C0.108223 35.352 1.35578 36.4281 2.79703 36.3261C11.9059 35.6862 21.5104 32.2314 30.1579 26.3583C36.3786 22.1389 42.1151 16.6566 46.8376 10.0698Z" fill="#8E8E8E"/>
</g>
<defs>
<clipPath id="clip0_164_76">
<rect width="70" height="67" fill="white" transform="matrix(-1 0 0 1 70 0)"/>
</clipPath>
</defs>
</svg>
