<svg width="24" height="24" viewBox="0 0 24 24" fill="none" xmlns="http://www.w3.org/2000/svg">
<path d="M12 3.5C13.1162 3.5 14.2215 3.71986 15.2528 4.14702C16.2841 4.57419 17.2211 5.20029 18.0104 5.98959C18.7997 6.77889 19.4258 7.71592 19.853 8.74719C20.2801 9.77846 20.5 10.8838 20.5 12C20.5 13.1162 20.2801 14.2215 19.853 15.2528C19.4258 16.2841 18.7997 17.2211 18.0104 18.0104C17.2211 18.7997 16.2841 19.4258 15.2528 19.853C14.2215 20.2801 13.1162 20.5 12 20.5C10.8838 20.5 9.77846 20.2801 8.74719 19.853C7.71592 19.4258 6.77889 18.7997 5.98959 18.0104C5.20029 17.2211 4.57419 16.2841 4.14702 15.2528C3.71986 14.2215 3.5 13.1162 3.5 12C3.5 10.8838 3.71986 9.77845 4.14703 8.74719C4.57419 7.71592 5.2003 6.77889 5.9896 5.98959C6.77889 5.20029 7.71593 4.57419 8.7472 4.14702C9.77846 3.71986 10.8838 3.5 12 3.5L12 3.5Z" stroke="black"/>
<path d="M12 4V6" stroke="black"/>
<path d="M12 18V20" stroke="black"/>
<path d="M20 12L18 12" stroke="black"/>
<path d="M6 12L4 12" stroke="black"/>
<path d="M17.6567 17.6562L16.2425 16.242" stroke="black"/>
<path d="M7.75732 7.75781L6.34311 6.3436" stroke="black"/>
<path d="M6.34326 17.6562L7.75748 16.242" stroke="black"/>
<path d="M16.2427 7.75781L17.6569 6.3436" stroke="black"/>
<path d="M9 10L12 12L15 9" stroke="black"/>
</svg>
