<svg width="24" height="24" viewBox="0 0 24 24" fill="none" xmlns="http://www.w3.org/2000/svg">
<path d="M17.5 8.68421C17.5 9.6502 17.1555 10.8794 16.6007 12.2153C16.0504 13.5405 15.3127 14.9249 14.5692 16.187C13.8265 17.4476 13.0831 18.5775 12.5249 19.3927C12.3223 19.6886 12.1444 19.9427 12 20.1462C11.8556 19.9427 11.6777 19.6886 11.4751 19.3927C10.9169 18.5775 10.1735 17.4476 9.4308 16.187C8.68725 14.9249 7.94963 13.5405 7.39926 12.2153C6.84447 10.8794 6.5 9.6502 6.5 8.68421C6.5 5.84618 8.93662 3.5 12 3.5C15.0634 3.5 17.5 5.84618 17.5 8.68421Z" stroke="black"/>
<circle cx="12" cy="9" r="3.5" stroke="black"/>
</svg>
