<svg width="17" height="15" viewBox="0 0 17 15" fill="none" xmlns="http://www.w3.org/2000/svg">
<path d="M16.0034 4.02439C16.0034 4.40854 16.0034 4.77439 16.0034 5.15854C16.0034 5.19513 15.9853 5.23171 15.9853 5.2683C15.8216 6.42074 15.1671 7.17074 14.058 7.50001C12.3489 8.0122 10.6398 8.5061 8.9489 9.00001C8.33072 9.18293 7.73072 9.18293 7.11253 9.00001C5.40344 8.48781 3.69435 7.99391 1.98526 7.50001C1.05799 7.22561 0.421625 6.62196 0.130715 5.68903C-0.0329209 5.23171 0.00344271 4.7561 0.00344271 4.29878C0.00344271 3.29269 0.694352 2.61586 1.69435 2.61586C2.7489 2.61586 3.80344 2.61586 4.85799 2.61586C4.91253 2.61586 4.98526 2.61586 5.05799 2.61586C5.05799 2.54268 5.05799 2.48781 5.05799 2.43293C5.05799 2.04878 5.05799 1.64634 5.05799 1.2622C5.07617 0.567074 5.56708 0.0365854 6.25799 0.0365854C7.42163 0 8.58526 0 9.76708 0C10.458 0 10.9489 0.530488 10.9671 1.22561C10.9671 1.60976 10.9671 2.0122 10.9671 2.39634C10.9671 2.45122 10.9671 2.5061 10.9671 2.57927C11.0398 2.57927 11.1125 2.57927 11.1671 2.57927C12.2398 2.57927 13.3125 2.57927 14.3853 2.57927C15.1125 2.57927 15.7125 3.01829 15.9307 3.69512C15.9489 3.82317 15.9671 3.91464 16.0034 4.02439ZM6.05799 2.59756C7.36708 2.59756 8.63981 2.59756 9.93072 2.59756C9.93072 2.15854 9.93072 1.73781 9.93072 1.29878C9.93072 1.07927 9.87617 1.02439 9.65799 1.02439C8.69435 1.02439 7.73072 1.02439 6.7489 1.02439C6.58526 1.02439 6.42163 1.02439 6.25799 1.02439C6.13072 1.02439 6.05799 1.09756 6.05799 1.20732C6.05799 1.68293 6.05799 2.12195 6.05799 2.59756Z" fill="#323232"/>
<path d="M16.0034 13.6098C15.9671 13.7012 15.9489 13.811 15.9125 13.9025C15.6943 14.5793 15.0943 15 14.3307 15C12.9852 15 11.6398 15 10.2943 15C7.4216 15 4.56705 15 1.69433 15C0.930691 15 0.330691 14.5976 0.0943271 13.9025C0.0397816 13.7378 0.00341797 13.5732 0.00341797 13.3903C0.00341797 11.7988 0.00341797 10.2073 0.00341797 8.61588C0.00341797 8.59758 0.00341797 8.57929 0.00341797 8.54271C0.0397816 8.561 0.0761452 8.57929 0.0943271 8.61588C0.548873 9.01832 1.05796 9.311 1.63978 9.47563C3.29433 9.96954 4.96705 10.4451 6.6216 10.939C7.13069 11.0854 7.63978 11.2317 8.18524 11.1769C8.60342 11.122 9.0216 11.0488 9.4216 10.9208C11.0943 10.4451 12.7671 9.95124 14.4398 9.45734C15.0034 9.29271 15.4943 9.00002 15.9125 8.59759C15.9489 8.561 15.9671 8.54271 16.0034 8.52441C16.0034 10.2073 16.0034 11.9086 16.0034 13.6098Z" fill="#323232"/>
</svg>
