<svg width="16" height="14" viewBox="0 0 16 14" fill="none" xmlns="http://www.w3.org/2000/svg">
<g clip-path="url(#clip0_393_917)">
<path d="M0 4.06274C5.33333 4.06274 10.6667 4.06274 16 4.06274C16 4.13595 16 4.20915 16 4.28235C16 6.99085 16 9.71765 16 12.4261C16 13.2314 15.4335 13.8353 14.5934 13.9634C14.4762 13.9817 14.3394 13.9817 14.2222 13.9817C9.96337 13.9817 5.72405 13.9817 1.4652 13.9817C0.605617 13.9817 0.0586081 13.4876 0.019536 12.6824C0.019536 12.6274 0.019536 12.5542 0.019536 12.4993C0.019536 9.73595 0.019536 6.99085 0.019536 4.22745C0 4.19085 0 4.13595 0 4.06274ZM12.8156 6.75294C12.8156 6.56993 12.8156 6.36863 12.8156 6.18562C12.8156 5.92941 12.6593 5.80131 12.3858 5.80131C11.9951 5.80131 11.5849 5.80131 11.1941 5.80131C10.9402 5.80131 10.7643 5.92941 10.7643 6.16732C10.7643 6.55163 10.7643 6.93595 10.7643 7.32026C10.7643 7.53987 10.9206 7.68627 11.1551 7.68627C11.5653 7.70457 11.9951 7.70457 12.4054 7.68627C12.6789 7.68627 12.7961 7.55817 12.7961 7.30196C12.8156 7.13725 12.8156 6.93595 12.8156 6.75294ZM7.81441 11.8954C8.00977 11.8954 8.20513 11.8954 8.40049 11.8954C8.67399 11.8954 8.81074 11.7856 8.81074 11.5111C8.81074 11.1268 8.81074 10.7425 8.81074 10.3582C8.81074 10.1203 8.65446 9.97385 8.40049 9.97385C7.99023 9.97385 7.57998 9.97385 7.16972 9.97385C6.91575 9.97385 6.75946 10.1203 6.75946 10.3765C6.75946 10.7425 6.75946 11.1268 6.75946 11.4928C6.75946 11.749 6.91575 11.8954 7.18926 11.8954C7.40415 11.9137 7.61905 11.8954 7.81441 11.8954ZM12.8156 10.9621C12.8156 10.7791 12.8156 10.5778 12.8156 10.3948C12.8156 10.1569 12.6593 10.0105 12.4054 9.99216C11.9951 9.99216 11.5849 9.99216 11.1746 9.99216C10.9206 9.99216 10.7643 10.1386 10.7643 10.3765C10.7643 10.7608 10.7643 11.1451 10.7643 11.5294C10.7643 11.7673 10.9206 11.8954 11.1746 11.8954C11.5849 11.8954 11.9951 11.8954 12.4054 11.8954C12.6789 11.8954 12.7961 11.7673 12.8156 11.5111C12.8156 11.3281 12.8156 11.1451 12.8156 10.9621ZM6.779 6.75294C6.779 6.93595 6.779 7.13725 6.779 7.32026C6.779 7.53987 6.91575 7.68627 7.15018 7.70457C7.59951 7.72287 8.0293 7.72287 8.47863 7.70457C8.69353 7.70457 8.81075 7.59477 8.83028 7.37516C8.84982 6.95425 8.84982 6.55163 8.83028 6.13072C8.83028 5.91111 8.65446 5.78301 8.43956 5.78301C8.0293 5.78301 7.61905 5.78301 7.20879 5.78301C6.95482 5.78301 6.81807 5.92941 6.79853 6.16732C6.779 6.36863 6.779 6.55163 6.779 6.75294ZM2.85226 10.9438C2.85226 11.1268 2.85226 11.3098 2.85226 11.4928C2.85226 11.5111 2.85226 11.5111 2.85226 11.5294C2.85226 11.7673 3.00855 11.9137 3.26252 11.9137C3.65324 11.9137 4.04396 11.9137 4.43468 11.9137C4.68864 11.9137 4.88401 11.7673 4.88401 11.5294C4.90354 11.1451 4.90354 10.7425 4.88401 10.3582C4.88401 10.1569 4.72772 10.0105 4.51282 10.0105C4.08303 9.99216 3.65324 9.99216 3.22344 10.0105C2.98901 10.0105 2.85226 10.1752 2.85226 10.3765C2.83272 10.5595 2.85226 10.7425 2.85226 10.9438ZM3.86813 5.80131C3.67277 5.80131 3.45788 5.80131 3.26252 5.80131C3.00855 5.80131 2.85226 5.94771 2.85226 6.18562C2.85226 6.56993 2.85226 6.93595 2.85226 7.32026C2.85226 7.55817 2.98901 7.70457 3.24298 7.70457C3.65324 7.72287 4.06349 7.72287 4.47375 7.70457C4.72772 7.70457 4.88401 7.53987 4.90354 7.30196C4.92308 6.91765 4.92308 6.53333 4.90354 6.14902C4.90354 5.92941 4.72772 5.80131 4.49328 5.80131C4.25885 5.78301 4.06349 5.78301 3.86813 5.80131Z" fill="#323232"/>
<path d="M2.79385 -1.58139e-06C2.79385 0.0732011 2.79385 0.146404 2.79385 0.219606C2.79385 0.60392 2.79385 0.988234 2.79385 1.37255C2.79385 1.68366 3.00874 1.88497 3.30178 1.88497C3.59482 1.88497 3.79018 1.68366 3.79018 1.37255C3.79018 0.933332 3.79018 0.494116 3.79018 0.0365997C6.44708 0.0365997 9.08444 0.0365997 11.7609 0.0365997C11.7609 0.0915017 11.7609 0.146404 11.7609 0.201306C11.7609 0.60392 11.7609 1.00653 11.7609 1.40915C11.7609 1.64706 11.8976 1.81176 12.1321 1.86667C12.3274 1.92157 12.5619 1.84836 12.6791 1.68366C12.7377 1.59216 12.7768 1.46405 12.7768 1.35425C12.7963 0.969933 12.7768 0.58562 12.7768 0.201306C12.7768 0.146404 12.7768 0.0915017 12.7768 0.0365997C12.7963 -1.58139e-06 12.8354 -1.58139e-06 12.8549 -1.58139e-06C13.4019 -1.58139e-06 14.0271 -0.0183022 14.5741 0.0365997C15.2774 0.109802 15.8634 0.640522 15.9807 1.24444C16.0002 1.29935 16.0002 1.35425 16.0002 1.40915C16.0002 1.93987 16.0002 2.48889 16.0002 3.01961C16.0002 3.03791 16.0002 3.05621 16.0002 3.07451C10.6864 3.07451 5.29446 3.07451 0.000196076 3.07451C0.000196076 2.41569 -0.0193399 1.77516 0.0392681 1.13464C0.0978762 0.420914 0.664421 -1.58139e-06 1.42633 -1.58139e-06C1.87565 -1.58139e-06 2.32498 -1.58139e-06 2.79385 -1.58139e-06Z" fill="#323232"/>
</g>
<defs>
<clipPath id="clip0_393_917">
<rect width="16" height="14" fill="white"/>
</clipPath>
</defs>
</svg>
