<?xml version="1.0" encoding="utf-8"?>
<!-- Generator: Adobe Illustrator 22.1.0, SVG Export Plug-In . SVG Version: 6.00 Build 0)  -->
<svg version="1.1" id="Слой_1" xmlns="http://www.w3.org/2000/svg" xmlns:xlink="http://www.w3.org/1999/xlink" x="0px" y="0px"
	 viewBox="0 0 20 20" style="enable-background:new 0 0 20 20;" xml:space="preserve">
<path d="M18,20H2c-1.1,0-2-0.9-2-2V2c0-1.1,0.9-2,2-2h16c1.1,0,2,0.9,2,2v16C20,19.1,19.1,20,18,20z M2,1C1.4,1,1,1.4,1,2v16
	c0,0.6,0.4,1,1,1h16c0.6,0,1-0.4,1-1V2c0-0.6-0.4-1-1-1H2z"/>
<polygon points="8.7,14.3 4.6,10.2 5.4,9.5 8.7,12.9 14.3,7.2 15,7.9 "/>
</svg>
