<svg width="16" height="16" viewBox="0 0 16 16" fill="none" xmlns="http://www.w3.org/2000/svg">
<g clip-path="url(#clip0_710_3146)">
<path d="M7.46655 13.2793C8.72225 13.2793 10.9636 13.2793 12.1855 13.2793C12.9012 13.2793 13.502 12.854 13.718 12.1857C13.772 12.0169 13.8058 11.8278 13.8058 11.6456C13.8125 9.8903 13.8125 6.1097 13.8058 4.35443C13.8058 3.41603 13.1104 2.72068 12.172 2.72068C11.0041 2.71392 8.82351 2.72068 7.66233 2.72068C7.60157 2.72068 7.54081 2.72068 7.4733 2.72068C7.46655 2.65992 7.46655 2.61266 7.46655 2.5654C7.46655 1.92405 7.46655 2.30211 7.46655 1.66076C7.46655 0.695359 8.16191 0 9.12731 0C10.8691 0 12.6041 0 14.3459 0C15.3113 0 15.9999 0.695359 15.9999 1.66076C15.9999 5.88017 15.9999 10.1063 15.9999 14.3257C15.9999 15.3046 15.3113 15.9932 14.3324 15.9932C12.5974 15.9932 10.8691 15.9932 9.13406 15.9932C8.15516 15.9932 7.46655 15.2979 7.46655 14.3257C7.46655 13.6979 7.46655 14.0827 7.46655 13.4549C7.46655 13.4076 7.46655 13.3468 7.46655 13.2793Z" fill="#323232"/>
<path d="M6.40007 4.80004C6.48109 4.80004 6.5486 4.80004 6.60935 4.80004C8.10809 4.80004 9.60682 4.80004 11.1056 4.80004C11.5241 4.80004 11.7267 5.00257 11.7267 5.42114C11.7267 7.13591 11.7267 8.85068 11.7267 10.5722C11.7267 10.9975 11.5241 11.2 11.0921 11.2C9.60007 11.2 8.10134 11.2 6.60935 11.2C6.54184 11.2 6.48108 11.2 6.39332 11.2C6.39332 11.2743 6.39332 11.3351 6.39332 11.3891C6.39332 12.0169 6.39332 12.6448 6.39332 13.2726C6.39332 13.5224 6.29881 13.7182 6.06252 13.8195C5.85324 13.914 5.6372 13.86 5.44142 13.6709C3.68615 11.9224 1.93763 10.1671 0.189104 8.41861C-0.0809383 8.14857 -0.0809383 7.85152 0.189104 7.58823C1.93763 5.83971 3.68615 4.09118 5.42792 2.34266C5.6102 2.16038 5.81273 2.07262 6.06252 2.18063C6.30556 2.2819 6.39332 2.48443 6.39332 2.74097C6.38657 3.36207 6.39332 3.98317 6.39332 4.60426C6.40007 4.66502 6.40007 4.72578 6.40007 4.80004Z" fill="#323232"/>
</g>
<defs>
<clipPath id="clip0_710_3146">
<rect width="16" height="16" fill="white"/>
</clipPath>
</defs>
</svg>
