<?xml version="1.0" encoding="utf-8"?>
<!-- Generator: Adobe Illustrator 22.1.0, SVG Export Plug-In . SVG Version: 6.00 Build 0)  -->
<svg version="1.1" id="Слой_1" xmlns="http://www.w3.org/2000/svg" xmlns:xlink="http://www.w3.org/1999/xlink" x="0px" y="0px"
	 viewBox="0 0 20 20" style="enable-background:new 0 0 20 20;" xml:space="preserve">
<path d="M15.2,11.8c1.2-1.3,1.9-2.9,1.9-4.8c0-3.9-3.1-7-7-7c-3.9,0-7,3.1-7,7c0,1.9,0.7,3.5,1.9,4.8l-3.2,5.7l3.4-0.9L6.1,20l3.5-6
	c0.2,0,0.3,0,0.5,0s0.3,0,0.5,0l3.5,6l0.9-3.4l3.4,0.9L15.2,11.8z M10.1,1c3.3,0,6,2.7,6,6s-2.7,6-6,6s-6-2.7-6-6S6.8,1,10.1,1z
	 M6.5,17.4l-0.5-2l-2.1,0.6l1.9-3.3c1.1,0.8,1.9,1.1,2.8,1.3L6.5,17.4z M14.2,15.3l-0.5,2l-2-3.5c0.9-0.2,1.7-0.4,2.8-1.3l1.9,3.3
	L14.2,15.3z"/>
</svg>
