<svg width="16" height="16" viewBox="0 0 16 16" fill="none" xmlns="http://www.w3.org/2000/svg">
<circle cx="8" cy="8" r="8" fill="#A6A6A6"/>
<path d="M8.69727 10.2988H7.01562C7.01562 9.95508 7.03906 9.65234 7.08594 9.39062C7.13672 9.125 7.22266 8.88672 7.34375 8.67578C7.46484 8.46484 7.62891 8.26953 7.83594 8.08984C8.01953 7.9375 8.17773 7.79102 8.31055 7.65039C8.44336 7.50977 8.54492 7.36719 8.61523 7.22266C8.68555 7.07812 8.7207 6.92383 8.7207 6.75977C8.7207 6.55664 8.69141 6.39062 8.63281 6.26172C8.57812 6.13281 8.49414 6.03711 8.38086 5.97461C8.27148 5.9082 8.13281 5.875 7.96484 5.875C7.82812 5.875 7.69922 5.9082 7.57812 5.97461C7.46094 6.04102 7.36523 6.14453 7.29102 6.28516C7.2168 6.42188 7.17578 6.60352 7.16797 6.83008H5.18164C5.19336 6.24805 5.32227 5.77539 5.56836 5.41211C5.81836 5.04492 6.15039 4.77734 6.56445 4.60938C6.98242 4.4375 7.44922 4.35156 7.96484 4.35156C8.53516 4.35156 9.02539 4.43945 9.43555 4.61523C9.8457 4.79102 10.1602 5.05273 10.3789 5.40039C10.5977 5.74414 10.707 6.16797 10.707 6.67188C10.707 7.00781 10.6426 7.30078 10.5137 7.55078C10.3887 7.79688 10.2188 8.02734 10.0039 8.24219C9.79297 8.45312 9.55664 8.67969 9.29492 8.92188C9.06836 9.12109 8.91406 9.32422 8.83203 9.53125C8.75 9.73438 8.70508 9.99023 8.69727 10.2988ZM6.77539 12.0801C6.77539 11.7988 6.87695 11.5645 7.08008 11.377C7.2832 11.1855 7.54688 11.0898 7.87109 11.0898C8.19531 11.0898 8.45898 11.1855 8.66211 11.377C8.86523 11.5645 8.9668 11.7988 8.9668 12.0801C8.9668 12.3613 8.86523 12.5977 8.66211 12.7891C8.45898 12.9766 8.19531 13.0703 7.87109 13.0703C7.54688 13.0703 7.2832 12.9766 7.08008 12.7891C6.87695 12.5977 6.77539 12.3613 6.77539 12.0801Z" fill="white"/>
</svg>
