<?xml version="1.0" encoding="utf-8"?>
<!-- Generator: Adobe Illustrator 22.1.0, SVG Export Plug-In . SVG Version: 6.00 Build 0)  -->
<svg version="1.1" id="Слой_1" xmlns="http://www.w3.org/2000/svg" xmlns:xlink="http://www.w3.org/1999/xlink" x="0px" y="0px"
	 viewBox="0 0 20 20" style="enable-background:new 0 0 20 20;" xml:space="preserve">
<path d="M15.7,4.5l-4.1-4.1L5.3,4.5H0v15h20v-5v-5v-5H15.7z M11.4,1.6l2.9,2.9H7.2L11.4,1.6z M19,13.5h-8c-0.6,0-1-0.4-1-1v-1
	c0-0.6,0.4-1,1-1h8V13.5z M11,9.5c-1.1,0-2,0.9-2,2v1c0,1.1,0.9,2,2,2h8v4H1v-13h18v4H11z"/>
</svg>
