<svg width="15" height="16" viewBox="0 0 15 16" fill="none" xmlns="http://www.w3.org/2000/svg">
<g clip-path="url(#clip0_402_2834)">
<path d="M9.15323 0C9.375 0.0836601 9.55645 0.25098 9.71774 0.418301C10.6653 1.40131 11.6129 2.38431 12.5605 3.36732C12.7621 3.57647 12.8629 3.80654 12.8629 4.09935C12.8629 4.41307 12.8629 4.7268 12.8629 5.04052C12.8629 5.52157 12.5403 5.85621 12.0766 5.87712C10.7056 5.87712 9.35484 5.87712 7.98387 5.87712C7.52016 5.87712 7.19758 5.52157 7.19758 5.04052C7.19758 3.95294 7.19758 2.88627 7.19758 1.79869C7.19758 1.73595 7.19758 1.6732 7.19758 1.61046C7.11694 1.61046 7.07661 1.61046 7.01613 1.61046C5.64516 1.61046 4.27419 1.61046 2.92339 1.61046C2.09677 1.61046 1.55242 2.17516 1.55242 3.03268C1.55242 6.35817 1.55242 9.66274 1.55242 12.9882C1.55242 13.8458 2.09677 14.4105 2.92339 14.4105C5.28226 14.4105 7.62097 14.4105 9.97984 14.4105C10.4234 14.4105 10.746 14.6824 10.8065 15.1007C10.8669 15.5608 10.5444 15.9582 10.1008 16C10.0605 16 10.0403 16 10 16C7.62097 16 5.24194 16 2.8629 16C1.5121 16 0.403226 15.0588 0.100806 13.7203C0.0201613 13.4693 0 13.2183 0 12.9673C0 9.66275 0 6.33726 0 3.03268C0 1.33856 1.18952 0.16732 2.47984 0.020915C2.5 0.020915 2.52016 0 2.54032 0C4.7379 0 6.95565 0 9.15323 0Z" fill="#323232"/>
<path d="M6.95605 10.102C6.95605 9.32818 6.95605 8.53341 6.95605 7.75955C6.95605 7.27851 7.19799 7.00661 7.6617 7.00661C8.06493 7.00661 8.44799 6.98569 8.85122 7.00661C9.96009 7.06936 10.8472 8.01053 10.8875 9.16086C10.9077 9.76739 10.9077 10.3948 10.8875 11.0014C10.8472 12.1517 9.93993 13.1138 8.83105 13.1556C8.44799 13.1765 8.04476 13.1556 7.6617 13.1556C7.21815 13.1556 6.97622 12.8837 6.97622 12.4445C6.95605 11.6916 6.95605 10.8968 6.95605 10.102ZM8.24638 8.34517C8.24638 9.53733 8.24638 10.7086 8.24638 11.8798C8.40767 11.8798 8.5488 11.8798 8.68993 11.8798C9.21412 11.8589 9.59718 11.4824 9.61734 10.9386C9.63751 10.3948 9.61734 9.83014 9.61734 9.28635C9.61734 8.84713 9.33509 8.47066 8.95202 8.387C8.71009 8.34517 8.48831 8.34517 8.24638 8.34517Z" fill="#323232"/>
<path d="M3.99149 10.7712C3.99149 10.8549 3.99149 10.8967 3.99149 10.9595C3.99149 11.4823 3.99149 12.0052 3.99149 12.5281C3.99149 12.9046 3.70924 13.1764 3.34633 13.1764C3.00359 13.1764 2.72133 12.9046 2.70117 12.5281C2.70117 10.8967 2.70117 9.28625 2.70117 7.65488C2.70117 7.32024 2.94311 7.02743 3.26569 7.00651C3.76972 6.9856 4.25359 6.96468 4.75762 7.02743C5.62456 7.11109 6.26972 7.88494 6.31004 8.82612C6.35037 9.68364 5.76569 10.4993 4.93908 10.7085C4.77779 10.7503 4.61649 10.7503 4.4552 10.7712C4.31408 10.7921 4.15278 10.7712 3.99149 10.7712ZM4.01166 9.45357C4.19311 9.45357 4.3544 9.45357 4.51569 9.45357C4.79795 9.45357 5.01972 9.2235 5.03988 8.95161C5.06004 8.6588 4.85843 8.40782 4.55601 8.3869C4.37456 8.36599 4.19311 8.3869 4.01166 8.3869C4.01166 8.72154 4.01166 9.0771 4.01166 9.45357Z" fill="#323232"/>
<path d="M12.9642 9.18159C13.1859 9.18159 13.3875 9.18159 13.6093 9.18159C13.8714 9.18159 14.1537 9.18159 14.4158 9.18159C14.7585 9.20251 15.0206 9.49532 15.0004 9.85087C15.0004 10.2064 14.7182 10.4992 14.3754 10.4992C13.9722 10.4992 13.5488 10.4992 13.1456 10.4992C13.0851 10.4992 13.0448 10.4992 12.9642 10.4992C12.9642 10.562 12.9642 10.6247 12.9642 10.6666C12.9642 11.294 12.9642 11.9215 12.9642 12.5489C12.9642 12.8626 12.7222 13.1345 12.44 13.1764C12.1174 13.2182 11.815 13.0509 11.7142 12.7371C11.694 12.6535 11.6738 12.5489 11.6738 12.4653C11.6738 11.1894 11.6738 9.91362 11.6738 8.6378C11.6738 7.67571 12.319 7.02734 13.2464 7.02734C13.6295 7.02734 14.0125 7.02734 14.4158 7.02734C14.7383 7.04826 14.9803 7.29924 15.0206 7.63388C15.0408 7.94761 14.8392 8.26133 14.5166 8.32408C14.4561 8.34499 14.3754 8.34499 14.315 8.34499C13.9521 8.34499 13.6093 8.34499 13.2464 8.34499C13.065 8.34499 12.9843 8.42865 12.9843 8.61689C12.9642 8.80512 12.9642 8.97244 12.9642 9.18159Z" fill="#323232"/>
</g>
<defs>
<clipPath id="clip0_402_2834">
<rect width="15" height="16" fill="white"/>
</clipPath>
</defs>
</svg>
