<svg width="20" height="15" viewBox="0 0 20 15" fill="none" xmlns="http://www.w3.org/2000/svg">
<mask id="path-1-inside-1_710_21" fill="white">
<path fill-rule="evenodd" clip-rule="evenodd" d="M14 0H6L4.5 3H0V15H20V3H15.5L14 0Z"/>
</mask>
<path d="M6 0V-1H5.38197L5.10557 -0.447214L6 0ZM14 0L14.8944 -0.447214L14.618 -1H14V0ZM4.5 3V4H5.11803L5.39443 3.44721L4.5 3ZM0 3V2H-1V3H0ZM0 15H-1V16H0V15ZM20 15V16H21V15H20ZM20 3H21V2H20V3ZM15.5 3L14.6056 3.44721L14.882 4H15.5V3ZM6 1H14V-1H6V1ZM5.39443 3.44721L6.89443 0.447214L5.10557 -0.447214L3.60557 2.55279L5.39443 3.44721ZM0 4H4.5V2H0V4ZM1 15V3H-1V15H1ZM20 14H0V16H20V14ZM19 3V15H21V3H19ZM15.5 4H20V2H15.5V4ZM13.1056 0.447214L14.6056 3.44721L16.3944 2.55279L14.8944 -0.447214L13.1056 0.447214Z" fill="white" mask="url(#path-1-inside-1_710_21)"/>
<circle cx="10" cy="8" r="3.5" stroke="white"/>
</svg>
