<?xml version="1.0" encoding="utf-8"?>
<!-- Generator: Adobe Illustrator 22.1.0, SVG Export Plug-In . SVG Version: 6.00 Build 0)  -->
<svg version="1.1" id="Слой_1" xmlns="http://www.w3.org/2000/svg" xmlns:xlink="http://www.w3.org/1999/xlink" x="0px" y="0px"
	 viewBox="0 0 20 20" style="enable-background:new 0 0 20 20;" xml:space="preserve">
<path d="M10,0C4.5,0,0,4.5,0,10s4.5,10,10,10c5.5,0,10-4.5,10-10S15.5,0,10,0z M4.1,16.8c0.1-0.3,0.2-0.5,0.3-0.8l0.1-0.3
	c0.3-0.7,0.7-1.4,1.3-1.9c0.6-0.6,1.2-1,1.9-1.3c1.4-0.6,3.1-0.6,4.5,0c0.7,0.3,1.4,0.7,1.9,1.3c0.6,0.6,1,1.2,1.3,1.9l0.1,0.2
	c0.1,0.2,0.2,0.6,0.3,0.9C14.3,18.2,12.3,19,10,19C7.7,19,5.7,18.2,4.1,16.8z M6.7,7.3C6.7,5.5,8.2,4,10,4s3.3,1.5,3.3,3.3
	c0,1.8-1.5,3.3-3.3,3.3S6.7,9.1,6.7,7.3z M16.7,16c-0.1-0.2-0.1-0.3-0.2-0.5l-0.1-0.2c-0.3-0.8-0.9-1.6-1.5-2.2
	c-0.6-0.6-1.4-1.2-2.2-1.5c-0.3-0.1-0.7-0.3-1.1-0.3c1.6-0.6,2.7-2.2,2.7-4C14.3,4.9,12.4,3,10,3S5.7,4.9,5.7,7.3
	c0,1.8,1.1,3.3,2.7,4c-0.4,0.1-0.7,0.2-1.1,0.3c-0.8,0.4-1.6,0.9-2.2,1.5c-0.6,0.6-1.2,1.4-1.5,2.2l-0.1,0.3
	c-0.1,0.1-0.1,0.3-0.2,0.4C1.9,14.4,1,12.3,1,10c0-5,4-9,9-9c5,0,9,4,9,9C19,12.3,18.1,14.4,16.7,16z"/>
</svg>
