<?xml version="1.0" encoding="utf-8"?>
<!-- Generator: Adobe Illustrator 22.1.0, SVG Export Plug-In . SVG Version: 6.00 Build 0)  -->
<svg version="1.1" id="Слой_1" xmlns="http://www.w3.org/2000/svg" xmlns:xlink="http://www.w3.org/1999/xlink" x="0px" y="0px"
	 viewBox="0 0 20 20" style="enable-background:new 0 0 20 20;" xml:space="preserve">
<path d="M11.1,19.8h-2c-0.6,0-1-0.3-1.1-0.9c-0.1-0.2-0.1-0.4-0.2-0.7c-0.1-0.4-0.2-0.7-0.3-1.1C7.3,17.1,7.2,17,7.1,17
	c-0.1-0.1-0.3-0.1-0.4-0.2c-0.4,0.3-0.9,0.5-1.3,0.8c-0.5,0.3-1,0.2-1.4-0.2c-0.5-0.5-0.9-0.9-1.4-1.4c-0.5-0.3-0.6-0.8-0.3-1.4
	c0.2-0.4,0.5-0.8,0.8-1.3c-0.1-0.3-0.2-0.5-0.3-0.7c-0.5-0.1-1-0.2-1.5-0.4l-0.3-0.1c-0.4-0.1-0.7-0.4-0.9-0.8l0-0.2l0-2.6
	C0.3,8.3,0.6,8,1.1,7.9c0.5-0.1,1-0.2,1.5-0.4l0.2-0.1C2.9,7.2,3,7,3.1,6.8c-0.3-0.5-0.6-1-0.9-1.4C2.1,5.2,1.7,4.5,2.4,3.9l1.4-1.4
	C4.2,2.1,4.7,2,5.2,2.4l1.4,0.8C6.9,3.1,7.1,3,7.4,2.9c0.1-0.5,0.2-0.9,0.4-1.4l0.1-0.3c0-0.4,0.3-0.7,0.7-0.9l0.2,0l2.6,0
	c0.4,0.2,0.7,0.5,0.8,0.9c0.1,0.3,0.1,0.6,0.2,0.9c0.1,0.3,0.1,0.5,0.2,0.8l0,0c0.1,0,0.2,0.1,0.3,0.1c0.1,0,0.3,0.1,0.4,0.2L13.5,3
	c0.4-0.2,0.7-0.4,1.1-0.6C15,2.2,15.5,2,16,2.6l1.4,1.4c0.5,0.5,0.5,0.9,0.2,1.5l-0.2,0.4c-0.2,0.3-0.4,0.6-0.5,0.9
	C16.9,7,17,7.2,17.1,7.5c0.5,0.1,0.9,0.2,1.4,0.4l0.3,0.1c0.4,0,0.7,0.3,0.9,0.7l0,0.2l0,2.6c-0.1,0.4-0.5,0.7-0.9,0.8
	c-0.5,0.1-1,0.2-1.5,0.4l-0.2,0.1c-0.1,0.2-0.2,0.5-0.3,0.7c0.1,0.2,0.2,0.4,0.4,0.6c0.1,0.2,0.3,0.5,0.4,0.7c0.4,0.6,0.3,1-0.2,1.5
	l-1.4,1.4c-0.5,0.5-1,0.5-1.5,0.2c-0.4-0.2-0.8-0.5-1.2-0.8c-0.3,0.1-0.5,0.2-0.8,0.3c-0.1,0.3-0.1,0.6-0.2,0.8
	c-0.1,0.3-0.1,0.6-0.2,1C12,19.5,11.6,19.8,11.1,19.8z M8.9,18.8c0,0,0,0,0.1,0h2c0.1,0,0.1,0,0.1,0c0,0,0,0,0-0.1
	c0.1-0.3,0.2-0.6,0.2-0.9c0.1-0.3,0.1-0.6,0.2-0.9c0-0.3,0.2-0.5,0.5-0.6c0.3-0.1,0.6-0.2,0.9-0.4c0.2-0.1,0.5-0.1,0.7,0
	c0.5,0.3,0.9,0.6,1.3,0.8c0.1,0.1,0.1,0.1,0.1,0.1c0,0,0,0,0.1-0.1l1.4-1.4c0.1-0.1,0.1-0.1,0.1-0.1c0,0,0,0-0.1-0.1
	c-0.2-0.2-0.3-0.5-0.4-0.7c-0.1-0.2-0.3-0.4-0.4-0.7c-0.1-0.2-0.2-0.4-0.1-0.7c0.2-0.3,0.3-0.6,0.4-0.9c0.2-0.4,0.4-0.5,0.5-0.5
	l0.3-0.1c0.5-0.1,1-0.3,1.6-0.4c0.1,0,0.1-0.1,0.2-0.1V8.9c0,0-0.1,0-0.1,0l-0.4-0.1c-0.5-0.1-1-0.3-1.5-0.4
	c-0.3-0.1-0.5-0.3-0.6-0.5C16.1,7.6,16,7.3,15.9,7c-0.1-0.2-0.1-0.5,0-0.7c0.2-0.4,0.4-0.7,0.6-1.1l0.2-0.4c0-0.1,0.1-0.1,0.1-0.1
	c0,0,0,0-0.1-0.1l-1.4-1.4c-0.1-0.1-0.1-0.1-0.1-0.1c0,0,0,0-0.2,0.1c-0.3,0.2-0.7,0.4-1,0.6l-0.5,0.3c-0.2,0.1-0.4,0.1-0.6,0
	C12.8,4.1,12.7,4,12.5,4c-0.2-0.1-0.3-0.1-0.5-0.2l-0.1-0.1c-0.1-0.1-0.2-0.1-0.3-0.3l-0.1-0.2c-0.1-0.3-0.1-0.6-0.2-0.9
	c-0.1-0.3-0.1-0.6-0.2-0.9c0-0.1-0.1-0.2-0.1-0.2H8.9c0,0,0,0.1,0,0.1L8.7,1.7c-0.1,0.5-0.3,1-0.4,1.5C8.3,3.6,8,3.7,7.8,3.8
	C7.5,3.9,7.2,4,6.9,4.2c-0.2,0.1-0.4,0.2-0.8,0L4.7,3.3c-0.1,0-0.1-0.1-0.1-0.1c0,0,0,0-0.1,0.1L3.1,4.6C3,4.7,3,4.7,3,4.7
	c0,0,0,0.1,0.1,0.2c0.3,0.5,0.6,1,0.9,1.5L4,6.5c0.1,0.2,0.1,0.4,0,0.6C3.9,7.4,3.8,7.6,3.7,7.9C3.7,8.1,3.5,8.3,3.2,8.4L2.9,8.5
	c-0.5,0.1-1,0.3-1.5,0.4C1.2,8.9,1.2,8.9,1.2,9v2.2c0,0,0.1,0.1,0.2,0.1l0.3,0.1c0.5,0.1,1,0.3,1.5,0.4c0.3,0.1,0.5,0.3,0.6,0.5
	C3.8,12.5,4,12.7,4.1,13c0.1,0.2,0.2,0.4,0,0.8c-0.3,0.4-0.5,0.9-0.8,1.3c0,0,0,0.1,0,0.1c0,0,0,0,0.1,0c0.5,0.5,1,1,1.5,1.4
	c0.1,0.1,0.1,0.1,0.1,0.1c0,0,0,0,0.1-0.1c0.5-0.3,0.9-0.5,1.4-0.8l0.1-0.1c0.2-0.1,0.4-0.1,0.6,0C7.2,15.9,7.3,16,7.5,16
	c0.2,0.1,0.3,0.1,0.5,0.2c0.2,0.1,0.4,0.3,0.4,0.4c0.2,0.5,0.3,0.9,0.4,1.3c0.1,0.2,0.1,0.4,0.2,0.7C8.9,18.8,8.9,18.8,8.9,18.8
	C8.9,18.8,8.9,18.8,8.9,18.8z M12.5,17.2C12.5,17.2,12.5,17.2,12.5,17.2C12.5,17.2,12.5,17.2,12.5,17.2z M13.5,16.7
	C13.5,16.7,13.5,16.8,13.5,16.7C13.5,16.8,13.5,16.8,13.5,16.7z M2.8,7.6C2.8,7.6,2.8,7.6,2.8,7.6C2.8,7.6,2.8,7.6,2.8,7.6z
	 M16.8,6.6C16.8,6.6,16.8,6.6,16.8,6.6C16.8,6.6,16.8,6.6,16.8,6.6z M6.7,3.3L6.7,3.3C6.7,3.3,6.7,3.3,6.7,3.3z M7.5,2.8
	C7.5,2.8,7.5,2.9,7.5,2.8C7.5,2.9,7.5,2.8,7.5,2.8z M10,14.3c-2.4,0-4.3-1.9-4.3-4.3S7.6,5.7,10,5.7s4.3,1.9,4.3,4.3
	S12.4,14.3,10,14.3z M10,6.7c-1.8,0-3.3,1.5-3.3,3.3c0,1.8,1.5,3.3,3.3,3.3c1.8,0,3.3-1.5,3.3-3.3C13.3,8.2,11.8,6.7,10,6.7z"/>
</svg>
