<?xml version="1.0" encoding="utf-8"?>
<!-- Generator: Adobe Illustrator 22.1.0, SVG Export Plug-In . SVG Version: 6.00 Build 0)  -->
<svg version="1.1" id="Слой_1" xmlns="http://www.w3.org/2000/svg" xmlns:xlink="http://www.w3.org/1999/xlink" x="0px" y="0px"
	 viewBox="0 0 20 20" style="enable-background:new 0 0 20 20;" xml:space="preserve">
<path d="M3,6C1.9,6,1,5.1,1,4s0.9-2,2-2s2,0.9,2,2S4.1,6,3,6z M3,3C2.4,3,2,3.4,2,4s0.4,1,1,1s1-0.4,1-1S3.6,3,3,3z"/>
<rect x="7" y="3.5" width="13" height="1"/>
<path d="M3,12c-1.1,0-2-0.9-2-2s0.9-2,2-2s2,0.9,2,2S4.1,12,3,12z M3,9c-0.6,0-1,0.4-1,1s0.4,1,1,1s1-0.4,1-1S3.6,9,3,9z"/>
<rect x="7" y="9.5" width="13" height="1"/>
<path d="M3,18c-1.1,0-2-0.9-2-2s0.9-2,2-2s2,0.9,2,2S4.1,18,3,18z M3,15c-0.6,0-1,0.4-1,1s0.4,1,1,1s1-0.4,1-1S3.6,15,3,15z"/>
<rect x="7" y="15.5" width="13" height="1"/>
</svg>
