<?xml version="1.0" encoding="utf-8"?>
<!-- Generator: Adobe Illustrator 22.1.0, SVG Export Plug-In . SVG Version: 6.00 Build 0)  -->
<svg version="1.1" id="Слой_1" xmlns="http://www.w3.org/2000/svg" xmlns:xlink="http://www.w3.org/1999/xlink" x="0px" y="0px"
	 viewBox="0 0 20 20" style="enable-background:new 0 0 20 20;" xml:space="preserve">
<path d="M17.3,7.6c0.6-0.5,1.4-0.9,2.2-1l0.4-0.1V4L0,4v2.5l0.4,0.1c1.7,0.2,3,1.7,3,3.4s-1.3,3.2-3,3.4L0,13.5V16h19.9v-2.5
	l-0.4-0.1c-0.8-0.1-1.6-0.4-2.2-1c-0.5-0.4-1.2-1.2-1.2-2.4S16.8,8,17.3,7.6z M1,14.3c2-0.5,3.4-2.2,3.4-4.3S3,6.1,1,5.7V5l11.4,0
	v10H1V14.3z M15.1,10c0,1.2,0.6,2.3,1.6,3.2c0.7,0.6,1.5,1,2.3,1.1V15h-5.5V5l5.5,0v0.7c-0.8,0.2-1.6,0.6-2.3,1.1
	C15.6,7.7,15.1,8.8,15.1,10z"/>
</svg>
