<?xml version="1.0" encoding="utf-8"?>
<!-- Generator: Adobe Illustrator 22.1.0, SVG Export Plug-In . SVG Version: 6.00 Build 0)  -->
<svg version="1.1" id="Слой_1" xmlns="http://www.w3.org/2000/svg" xmlns:xlink="http://www.w3.org/1999/xlink" x="0px" y="0px"
	 viewBox="0 0 20 20" style="enable-background:new 0 0 20 20;" xml:space="preserve">
<path d="M10,19.5c-1.4,0-2.9-0.3-4.2-1c-2.1-1-3.7-2.8-4.6-4.9c-0.9-2.1-1-4.5-0.2-6.7c0.7-2.2,2.2-4,4.2-5.2l0.5,0.9
	C4,3.7,2.6,5.3,2,7.3s-0.6,4.1,0.2,6c0.8,1.9,2.2,3.5,4.1,4.4c1.8,0.9,4,1.1,6,0.6c2-0.5,3.7-1.8,4.9-3.5c1.1-1.7,1.6-3.8,1.4-5.8
	c-0.3-2-1.3-3.9-2.8-5.3c-1.4-1.3-3.2-2-5.1-2.1V10h-1V0.5H10c2.3,0,4.5,0.8,6.3,2.4c1.7,1.5,2.9,3.6,3.2,5.9
	c0.3,2.3-0.2,4.6-1.5,6.5c-1.3,1.9-3.2,3.3-5.4,3.9C11.7,19.4,10.8,19.5,10,19.5z"/>
</svg>
