<svg width="22" height="24" viewBox="0 0 22 24" fill="none" xmlns="http://www.w3.org/2000/svg">
<path d="M19.9508 2.0455C19.7827 1.96203 19.6145 2.00376 19.4884 2.08724C19.4884 2.08724 17.513 3.67322 15.4954 3.67322C14.5707 3.67322 13.7721 3.29759 12.9735 2.92196C12.0489 2.5046 10.9981 2.00376 9.52696 2.00376C6.12241 2.00376 3.85271 3.54801 2.88598 4.341L2.63379 3.71495C2.59176 3.50627 2.33957 3.38106 2.12942 3.46454C1.87723 3.54801 1.79316 3.75669 1.87723 3.96537L8.26602 21.7033C8.30805 21.8703 8.47618 21.9955 8.6443 21.9955C8.68633 21.9955 8.72837 21.9955 8.7704 21.9537C8.98055 21.8703 9.10665 21.6199 9.02259 21.4112L7.00507 15.8602C7.55148 15.3594 9.35884 13.8569 11.1662 13.8569C12.4692 13.8569 13.2678 14.1073 14.0243 14.316C14.7389 14.5247 15.3693 14.6916 16.294 14.6916C18.2275 14.6916 19.8667 13.8152 19.9088 13.7734C20.0348 13.6899 20.1189 13.5647 20.1189 13.3978V2.42113C20.1609 2.25418 20.0769 2.12897 19.9508 2.0455ZM15.4114 13.8152L14.6548 10.6015C13.8562 10.3928 12.5532 10.0171 11.9648 9.93367L12.8475 13.1891C12.3851 13.1056 11.8387 13.0639 11.2082 13.0639C10.7038 13.0639 10.1995 13.1474 9.69509 13.3143L8.51821 10.2258C7.38336 10.6432 6.24851 11.6031 5.7021 12.0622L4.31506 8.22248C5.66006 7.0956 7.08914 6.59476 7.08914 6.59476L5.87022 3.54801C6.87898 3.13065 8.09789 2.83849 9.52696 2.83849C9.73712 2.83849 9.90525 2.83849 10.0734 2.88023L10.914 6.05219C11.6706 6.05219 13.8562 7.0956 13.8562 7.0956L13.1417 3.92364C13.8562 4.25753 14.6128 4.50795 15.5375 4.50795C15.9578 4.50795 16.3781 4.46621 16.7984 4.341L17.0506 7.38775C17.0506 7.38775 18.1014 7.13734 19.4044 6.26087V9.93367C18.3116 10.4762 17.3448 10.6432 17.3448 10.6432L17.597 13.7734C17.2187 13.8569 16.8404 13.8986 16.4201 13.8986C15.9998 13.8986 15.6636 13.8569 15.4114 13.8152Z" fill="#7A7A7A"/>
<path d="M10.4094 9.85019C11.166 9.85019 11.9646 9.9754 11.9646 9.9754L10.9138 6.09392C10.9138 6.09392 10.6196 6.05219 10.2413 6.05219C8.51798 6.05219 7.04688 6.59476 7.04688 6.59476L8.47595 10.2676C8.51798 10.2258 9.6108 9.85019 10.4094 9.85019Z" fill="#7A7A7A"/>
<path d="M15.8314 7.59645C14.8227 7.59645 13.856 7.09561 13.856 7.09561L14.6546 10.6015C14.6546 10.6015 15.4532 10.7684 15.9996 10.7684C16.546 10.7684 17.2605 10.6432 17.2605 10.6432L17.0083 7.4295C17.0083 7.4295 16.4619 7.59645 15.8314 7.59645Z" fill="#7A7A7A"/>
</svg>
