<svg width="24" height="24" viewBox="0 0 24 24" fill="none" xmlns="http://www.w3.org/2000/svg">
<path d="M12 12.25V12.5347L12.2449 12.68L16.1194 14.9789C16.2241 15.041 16.2579 15.1767 16.1945 15.2806C16.132 15.3831 15.9985 15.416 15.8955 15.3542L11.5 12.7169V7.75C11.5 7.61193 11.6119 7.5 11.75 7.5C11.8881 7.5 12 7.61193 12 7.75V12.25ZM2.5 12C2.5 6.75549 6.74679 2.5 11.99 2.5C17.2442 2.5 21.5 6.75647 21.5 12C21.5 17.2435 17.2442 21.5 11.99 21.5C6.74679 21.5 2.5 17.2445 2.5 12ZM3.5 12C3.5 16.6961 7.30386 20.5 12 20.5C16.6961 20.5 20.5 16.6961 20.5 12C20.5 7.30386 16.6961 3.5 12 3.5C7.30386 3.5 3.5 7.30386 3.5 12Z" fill="#7A7A7A" stroke="#7A7A7A"/>
</svg>
