<svg width="158" height="29" viewBox="0 0 158 29" fill="none" xmlns="http://www.w3.org/2000/svg">
<path d="M42.6632 -0.000366211H53.6357C58.1454 -0.000366211 61.4358 1.38923 63.5071 4.16842C65.5784 6.94762 66.1421 10.592 65.1982 15.1017C64.3068 19.4016 62.5108 22.6265 59.8103 24.7764C57.136 26.9263 53.3998 28.0013 48.6017 28.0013H36.7246L42.6632 -0.000366211ZM58.5124 14.3938C59.1155 11.5883 58.9057 9.42529 57.8832 7.9046C56.8869 6.38391 55.2089 5.62357 52.8492 5.62357H48.1298L44.5509 22.3774H49.3096C54.3436 22.3774 57.4112 19.7162 58.5124 14.3938Z" fill="black"/>
<path d="M71.5448 -0.000366211H83.7366C87.3023 -0.000366211 89.898 0.799308 91.5236 2.39865C93.1753 3.97178 93.7128 6.10861 93.136 8.80915C92.8214 10.2774 92.1266 11.549 91.0516 12.624C90.0029 13.699 88.6133 14.4724 86.8828 14.9444C89.4523 15.862 90.4486 17.9595 89.8718 21.2369L89.3212 24.6977C89.0852 26.166 89.1245 27.2672 89.4392 28.0013H82.5961C82.3601 27.2934 82.3732 26.1791 82.6354 24.6584L83.186 21.6301C83.4744 20.1619 83.3433 19.1394 82.7927 18.5625C82.2683 17.9857 81.2982 17.6973 79.8824 17.6973H74.4551L72.2527 28.0013H65.6063L71.5448 -0.000366211ZM75.4776 12.7026H81.0622C82.4781 12.7026 83.6317 12.4011 84.5231 11.7981C85.4146 11.1951 85.9652 10.3561 86.1749 9.28109C86.6993 6.63299 85.5457 5.30894 82.714 5.30894H77.0508L75.4776 12.7026Z" fill="black"/>
<path d="M98.8291 28.0013H92.1826L98.1605 -0.000366211H104.807L98.8291 28.0013Z" fill="black"/>
<path d="M121.144 12.3094L127.516 -0.000366211H134.595L119.296 28.0013H111.391L106.829 -0.000366211H113.711L115.481 12.3094C115.848 15.377 116.137 18.6543 116.346 22.1414C117.972 18.6281 119.571 15.3507 121.144 12.3094Z" fill="black"/>
<path d="M158 -0.000366211L156.741 5.93819H141.993L140.892 11.0115H154.303L153.123 16.5961H139.712L138.532 22.0628H153.241L151.983 28.0013H130.627L136.605 -0.000366211H158Z" fill="black"/>
<path d="M14.0009 -0.000355379C17.0829 -0.000355514 20.0789 1.01663 22.524 2.89287C24.9692 4.76911 26.7269 7.39975 27.5246 10.3768C28.3223 13.3538 28.1154 16.5109 26.936 19.3584C25.7565 22.2058 23.6704 24.5845 21.0013 26.1256C18.3321 27.6666 15.2291 28.2838 12.1734 27.8815C9.11769 27.4793 6.28012 26.0799 4.10077 23.9006C1.92142 21.7212 0.522089 18.8837 0.119799 15.828C-0.282492 12.7723 0.334743 9.66921 1.87578 7.00006L7.93832 10.5003C7.1678 11.8348 6.85918 13.3864 7.06033 14.9142C7.26147 16.4421 7.96114 17.8609 9.05082 18.9505C10.1405 20.0402 11.5593 20.7399 13.0871 20.941C14.615 21.1422 16.1665 20.8335 17.5011 20.063C18.8356 19.2925 19.8787 18.1032 20.4684 16.6794C21.0581 15.2557 21.1616 13.6772 20.7627 12.1886C20.3639 10.7001 19.485 9.3848 18.2624 8.44668C17.0399 7.50856 15.5419 7.00006 14.0009 7.00006L14.0009 -0.000355379Z" fill="url(#paint0_angular_2_218)"/>
<path d="M11.4463 -0.000488281H14.2305L16.396 0.618229V16.0862H11.4463L11.4463 -0.000488281Z" fill="#161616"/>
<defs>
<radialGradient id="paint0_angular_2_218" cx="0" cy="0" r="1" gradientUnits="userSpaceOnUse" gradientTransform="translate(14.0008 14.0005) rotate(-148.134) scale(14.1851)">
<stop/>
<stop offset="0.740445" stop-opacity="0.654476"/>
<stop offset="1" stop-opacity="0"/>
</radialGradient>
</defs>
</svg>
