<svg width="79" height="80" viewBox="0 0 79 80" fill="none" xmlns="http://www.w3.org/2000/svg">
<path d="M39.5 0.385809C48.1733 0.385809 56.6042 3.24772 63.4852 8.52768C70.3662 13.8076 75.3126 21.2106 77.5574 29.5883C79.8023 37.966 79.2199 46.8504 75.9008 54.8635C72.5817 62.8765 66.7113 69.5705 59.2 73.9071C51.6887 78.2438 42.9564 79.9808 34.3573 78.8487C25.7582 77.7166 17.773 73.7787 11.64 67.6458C5.50708 61.5128 1.56919 53.5276 0.437102 44.9285C-0.694989 36.3294 1.04198 27.5971 5.37862 20.0858L22.4393 29.9358C20.271 33.6914 19.4025 38.0576 19.9686 42.3571C20.5346 46.6567 22.5035 50.6493 25.57 53.7158C28.6365 56.7822 32.6291 58.7512 36.9286 59.3172C41.2282 59.8833 45.5944 59.0148 49.35 56.8465C53.1056 54.6781 56.0408 51.3312 57.7004 47.3246C59.36 43.3181 59.6511 38.8759 58.5287 34.687C57.4063 30.4982 54.9331 26.7967 51.4926 24.1567C48.0521 21.5167 43.8366 20.0858 39.5 20.0858L39.5 0.385809Z" fill="url(#paint0_angular_317_354)"/>
<path d="M32.3112 0.38501H40.1463L46.2403 2.12615V45.6547H32.3112L32.3112 0.38501Z" fill="#888888"/>
<defs>
<radialGradient id="paint0_angular_317_354" cx="0" cy="0" r="1" gradientUnits="userSpaceOnUse" gradientTransform="translate(39.4999 39.7857) rotate(-148.134) scale(39.9186)">
<stop stop-color="#6C6C6C"/>
<stop offset="0.740445" stop-color="#BFBFBF" stop-opacity="0.654476"/>
<stop offset="1" stop-color="#373737" stop-opacity="0"/>
</radialGradient>
</defs>
</svg>
